<?xml version="1.0" encoding="utf-8"?>
<!-- Generator: Adobe Illustrator 28.1.0, SVG Export Plug-In . SVG Version: 6.00 Build 0)  -->
<svg version="1.1" id="Layer_1" xmlns="http://www.w3.org/2000/svg" xmlns:xlink="http://www.w3.org/1999/xlink" x="0px" y="0px"
	 viewBox="0 0 1000 1000" style="enable-background:new 0 0 1000 1000;" xml:space="preserve">
<style type="text/css">
	.st0{fill:#25D366;}
	.st1{fill:#00E676;}
	.st2{fill:#FFFFFF;}
	.st3{fill:#103928;}
</style>
<path class="st1" d="M407.6,642.1l6.4,3.2c26.7,16,56.6,23.5,86.5,23.5c94,0,170.9-76.9,170.9-170.9c0-44.9-18.2-88.7-50.2-120.7
	c-32.1-32.1-74.8-50.2-120.7-50.2c-94,0-170.9,76.9-169.9,172c0,32.1,9.6,63,25.6,89.7l4.3,6.4l-17.1,63
	C343.5,658.1,407.6,642.1,407.6,642.1z"/>
<path class="st2" d="M639.4,360c-36.3-37.4-86.5-57.7-137.8-57.7c-109,0-196.6,88.7-195.5,196.6c0,34.2,9.6,67.3,25.6,97.2
	L304,697.6l103.6-26.7c28.8,16,60.9,23.5,92.9,23.5c107.9,0,195.5-88.7,195.5-196.6C696,445.5,675.7,396.4,639.4,360z M501.6,661.3
	c-28.8,0-57.7-7.5-82.3-22.4l-6.4-3.2l-62,16l16-60.9l-4.3-6.4c-47-75.9-24.6-176.3,52.3-223.3s176.3-24.6,223.3,52.3
	c47,76.9,24.6,176.3-52.3,223.3C561.4,652.8,531.5,661.3,501.6,661.3z M595.6,542.7l-11.8-5.3c0,0-17.1-7.5-27.8-12.8
	c-1.1,0-2.1-1.1-3.2-1.1c-3.2,0-5.3,1.1-7.5,2.1c0,0-1.1,1.1-16,18.2c-1.1,2.1-3.2,3.2-5.3,3.2H523c-1.1,0-3.2-1.1-4.3-2.1l-5.3-2.1
	c-11.8-5.3-22.4-11.8-31-20.3c-2.1-2.1-5.3-4.3-7.5-6.4c-7.5-7.5-15-16-20.3-25.6l-1.1-2.1c-1.1-1.1-1.1-2.1-2.1-4.3
	c0-2.1,0-4.3,1.1-5.3c0,0,4.3-5.3,7.5-8.5c2.1-2.1,3.2-5.3,5.3-7.5c2.1-3.2,3.2-7.5,2.1-10.7c-1.1-5.3-13.9-34.2-17.1-40.6
	c-2.1-3.2-4.3-4.3-7.5-5.3h-11.8c-2.1,0-4.3,1.1-6.4,1.1l-1.1,1.1c-2.1,1.1-4.3,3.2-6.4,4.3c-2.1,2.1-3.2,4.3-5.3,6.4
	c-7.5,9.6-11.8,21.4-11.8,33.1c0,8.5,2.1,17.1,5.3,24.6l1.1,3.2c9.6,20.3,22.4,38.5,39.5,54.5l4.3,4.3c3.2,3.2,6.4,5.3,8.5,8.5
	c22.4,19.2,48.1,33.1,76.9,40.6c3.2,1.1,7.5,1.1,10.7,2.1h10.7c5.3,0,11.8-2.1,16-4.3c3.2-2.1,5.3-2.1,7.5-4.3l2.1-2.1
	c2.1-2.1,4.3-3.2,6.4-5.3c2.1-2.1,4.3-4.3,5.3-6.4c2.1-4.3,3.2-9.6,4.3-15v-7.5C598.8,544.9,597.8,543.8,595.6,542.7z"/>
</svg>
